<?xml version="1.0" encoding="UTF-8"?>
<svg id="cart" xmlns="http://www.w3.org/2000/svg" viewBox="0 0 469.979 384.756">
  <defs>
    <style>
      .cls-1 {
        <!-- fill: #333; -->
        <!-- stroke: #8f8f8f; -->
        stroke-miterlimit: 10;
        stroke-width: 12px;
      }
    </style>
  </defs>
  <path class="cls-1" d="M465.333,18.95c3.127-2.022,2.75-9.354-.566-13.236-3.316-3.882-8.411-3.72-11.403-2.264s-82.571,44.318-82.571,44.318l-61.463,232.859-242.617,.431s-6.362,.863-6.362,9.813c0,8.95,5.499,9.813,5.499,9.813H325.397s61.894-237.63,61.894-237.63c0,0,76.317-43.105,78.042-44.102Z"/>
  <path id="rightWheel" class="cls-1" d="M234.927,346.133c0,19.95,16.173,36.123,36.123,36.123,19.95,0,36.123-16.173,36.123-36.123,0-19.95-16.173-36.123-36.123-36.123-19.95,0-36.123,16.173-36.123,36.123Zm21.35,0c0-8.159,6.614-14.773,14.773-14.773,8.159,0,14.773,6.614,14.773,14.773s-6.614,14.773-14.773,14.773c-8.159,0-14.773-6.614-14.773-14.773Z"/>
  <path id="leftWheel" class="cls-1" d="M85.098,346.133c0,19.95,16.173,36.123,36.123,36.123,19.95,0,36.123-16.173,36.123-36.123,0-19.95-16.173-36.123-36.123-36.123s-36.123,16.173-36.123,36.123Zm21.35,0c0-8.159,6.614-14.773,14.773-14.773s14.773,6.614,14.773,14.773-6.614,14.773-14.773,14.773c-8.159,0-14.773-6.614-14.773-14.773Z"/>
  <path class="cls-1" d="M328.308,100.874s6.146-2.804,6.146-10.028c0-7.225-6.146-10.459-6.146-10.459l-318.583,.323s-7.225,1.024-7.225,8.842c0,.809,49.602,158.779,49.602,158.779,0,0,.809,3.127,7.063,3.127,6.254,0,229.408,0,229.408,0,0,0,7.656-2.103,7.656-9.597s-7.44-10.459-7.44-10.459l-219.164-1.294L26.6,100.982l301.708-.108Z"/>
</svg>