<?xml version="1.0" encoding="UTF-8"?><svg id="a" xmlns="http://www.w3.org/2000/svg" width="402.615" height="483.86" viewBox="0 0 402.615 483.86"><defs><style>.b{fill:#020202;}</style></defs><path d="M194.105,0h14c.303,.709,.919,.817,1.6,.915,26.131,3.77,44.611,17.854,55.714,41.656,1.374,2.946,2.861,4.262,6.255,4.346,21.14,.521,42.274,1.276,63.409,1.976,18.972,.628,37.942,1.341,56.916,1.895,5.112,.149,8.548,2.27,10.183,7.16-.033,.497-.095,.995-.095,1.492,.005,86.727,.013,173.454,.029,260.181,0,1.494,.102,2.989,.156,4.483-.072,.325-.086,.678-.225,.972-2.381,5.055-6.525,7.471-11.059,6.468-5.132-1.136-7.851-4.721-7.966-10.527-.026-1.333-.008-2.666-.008-3.999,0-22.829,.013-45.657-.026-68.486-.003-1.741,.461-3.599-.61-5.447-2.935,1.086-5.667,2.297-8.515,3.092-2.696,.753-4.021,2.401-5.049,4.919-3.972,9.726-6.424,19.862-8.678,30.076-1.755,7.953-2.336,16.167-5.032,23.896-1.043,2.99-.719,5.085,1.361,7.628,8.323,10.174,7.592,22.624-1.529,32.039-5.095,5.259-11.389,8.563-18.089,11.252-2.132,.856-4.481,1.253-6.487,2.798,.21,.817,.39,1.614,.619,2.397,2.607,8.907,.204,16.739-5.141,23.931-3.658,4.922-8.411,8.609-13.899,11.137-21.146,9.739-42.167,9.548-62.836-1.479-2.14-1.142-4.137-1.874-6.572-1.765-7.031,.317-13.987-.558-20.814-2.107-9.072-2.058-18.266-3.644-27.128-6.574-2.547-.842-5.03-.969-7.781-.585-5.611,.784-11.282,.659-16.872-.72-6.045-1.491-8.772-4.706-8.844-10.907-.062-5.332-.12-10.667,.026-15.995,.077-2.807-.698-5.027-2.419-7.311-9.498-12.608-16.39-26.574-21.083-41.638-5.15-16.533-7.116-33.455-6.664-50.745,.179-6.835,.423-13.691,1.571-20.376,2.667-15.522,8.231-30.145,15.693-43.971,12.275-22.743,29.461-40.599,53.124-51.639,5.274-2.461,10.427-4.917,15.154-8.43,6.648-4.94,14.496-7.354,22.555-8.926,2.003-.391,2.815-1.2,2.902-3.24,.397-9.27,5.339-15.83,12.685-20.931,6.455-4.482,13.714-6.704,21.42-7.541,11.619-1.262,22.584,.835,32.492,7.193,10.933,7.016,15.519,18.29,12.284,29.564-.35,1.221-1.217,2.315-.976,3.807,2.816,1.259,5.866,1.304,8.734,2.072,9.792,2.622,18.886,6.548,25.964,14.084,8.861,9.435,10.069,21.091,3.556,32.117-.469,.793-1.508,1.384-.97,3.139,8.547,1.31,17.058,3.841,25.152,7.3,.907-1.202,.714-2.234,.714-3.214,.009-37.826,.015-75.651-.004-113.477-.002-3.813-.075-3.808-3.865-3.932-12.318-.402-24.636-.808-36.955-1.214-18.147-.598-36.294-1.194-54.441-1.799-11.486-.383-22.973-.768-34.458-1.179-16.148-.577-32.293-1.211-48.442-1.759-13.317-.452-26.637-.796-39.955-1.224-20.312-.653-40.623-1.346-60.935-1.998-3.738-.12-3.747-.066-3.816,3.85-.024,1.333-.005,2.666-.005,3.999-.008,67.15-.02,134.3-.024,201.45-.004,62.487-.007,124.974,.025,187.462,0,1.928-.529,3.971,.562,5.746,14.089-.875,28.041-1.685,41.984-2.621,17.275-1.16,34.54-2.476,51.815-3.632,17.278-1.156,34.568-2.137,51.845-3.305,22.425-1.516,44.84-3.173,67.263-4.709,20.1-1.376,40.207-2.647,60.307-4.026,2.791-.192,6.241,.958,8.214-.946,2.196-2.118,.818-5.691,.85-8.61,.117-10.663,.101-21.329,.019-31.993-.032-4.211,1.435-7.47,5.169-9.537,5.407-2.993,10.921-.619,14.004,5.982,.028,18.71,.056,37.419,.084,56.129-1.386,5.351-5.336,7.371-10.367,7.728-11.283,.801-22.575,1.483-33.864,2.214-7.636,.495-15.273,.979-22.908,1.492-12.283,.824-24.562,1.697-36.846,2.493-12.119,.786-24.244,1.47-36.363,2.26-13.942,.908-27.88,1.886-41.82,2.827-6.142,.415-12.285,.807-18.426,1.22-13.61,.915-27.219,1.846-40.829,2.753-11.62,.775-23.243,1.496-34.861,2.297-11.283,.778-22.562,1.62-33.842,2.452-1.512,.111-2.962-.047-4.439-.416-26.437-6.596-52.88-13.164-79.324-19.73-4.175-1.037-7.214-3.291-8.356-7.634,.036-1.829,.103-3.659,.103-5.488,.005-128.535,.005-257.069,.001-385.604,0-2.329-.051-4.658-.078-6.987,1.726-4.477,4.893-6.809,9.761-7.292,7.116-.706,14.193-1.802,21.29-2.698,12.215-1.542,24.422-3.162,36.654-4.551,9.081-1.031,18.076-2.907,27.305-2.556,12.483,.475,24.978,.633,37.456,1.187,3.323,.148,4.954-.944,6.518-3.868,10.413-19.473,26.459-31.613,48.081-36.444,2.33-.521,5.013,.128,7.014-1.745ZM79.877,460.956c.715-2.503,.443-4.503,.441-6.474-.068-71.155-.18-142.311-.223-213.466-.013-20.66,.22-41.321,.243-61.981,.041-37.329,.014-74.657,.004-111.986-.001-5.492-.068-5.532-5.641-4.817-4.623,.593-9.24,1.23-13.865,1.811-11.889,1.493-23.79,2.888-35.666,4.477-5.899,.789-5.88,.943-5.881,6.919-.004,119.485-.008,238.97-.011,358.455,0,2.833-.022,5.666,.02,8.499,.054,3.653,.062,3.713,3.698,4.628,14.681,3.692,29.367,7.364,44.062,10.998,4.169,1.031,8.265,2.42,12.818,2.939Zm197.08-168.765c-8.349-.394-16.182,.369-23.96-.624-1.674-.214-1.763,1.081-1.839,2.303-.293,4.672-2.205,8.667-5.214,12.169-3.542,4.122-7.952,7.126-12.924,9.151-2.773,1.129-4.09,2.958-4.993,5.665-2.111,6.332-3.724,12.777-4.87,19.337-1.641,9.397-3.881,18.565-9.318,26.626-.36,.534-.76,1.087-.18,2.034,5.868,1.741,11.933,1.24,18.042,.14,17.309-3.116,32.05-17.035,35.306-33.952,2.735-14.211,5.296-28.446,9.951-42.85Zm-49.992-80.227c7.933,.33,16.315-.831,24.565-2.949,5.656-1.452,11.143-3.411,15.926-6.878,5.942-4.306,5.842-7.05-.324-11.211-3.894-2.628-8.183-4.472-12.669-5.749-18.165-5.169-36.397-5.309-54.648-.414-5.824,1.562-11.373,3.759-16.071,7.66-3.756,3.119-3.812,5.415-.099,8.508,3.484,2.902,7.543,4.842,11.821,6.305,10.01,3.423,20.314,4.956,31.498,4.727Zm39.694,60.889c4.042,.513,8.115-.542,12.242-.859,9.71-.747,18.934-3.187,27.438-8.051,1.715-.981,3.118-2.217,4.366-3.866,1.627-2.15,1.485-3.757-.041-5.752-2-2.614-4.524-4.2-7.702-5.023-3.518-.911-6.354-3.356-9.911-4.401-7.237-2.127-14.696-2.042-22.059-2.921-5.11-.61-10.171,1.128-15.297,.133-1.944-.377-2.289,1.241-2.75,2.781-2.188,7.301-3.488,14.796-5.037,22.236-.783,3.762-.531,4.46,3.237,4.635,5.142,.238,10.193,1.568,15.514,1.088Zm-115.059,1.029c4.275-2.281,8.409-4.779,13.06-6.081,4.797-1.343,9.612-2.63,14.443-3.843,5.157-1.295,5.173-1.245,4.928-6.493-.023-.498-.11-.992-.17-1.488-1.013-8.374-1.913-16.763-3.081-25.115-.762-5.452-2.004-10.535-7.839-13.398-4.313-2.116-7.017-6.363-9.606-10.614-7.982,12.116-15.725,49.197-11.735,67.033Zm8.304-230.956c28.476,.965,56.461,1.913,84.729,2.871-6.787-14.564-25.732-26.54-45.117-25.837-15.829,.574-34.827,11.021-39.613,22.967Zm179.478,188.995c10.569,.126,20.853-1.513,30.756-5.274,3.591-1.364,7-3.112,9.935-5.631,3.655-3.137,3.626-5.322-.12-8.473-2.303-1.936-4.929-3.369-7.669-4.612-11.154-5.06-23.073-5.983-35.065-6.556-2.211-.106-3.393,.884-3.894,2.971-1.086,4.524-2.259,9.026-3.328,13.554-.878,3.719-1.737,7.443-2.055,11.271-.156,1.879,.466,2.812,2.463,2.768,2.991-.065,5.985-.017,8.977-.017Zm-67.88-61.859c7.133-1.812,14.089-4.001,19.094-9.922,1.641-1.941,1.983-4.067,.714-6.467-1.288-2.434-3.1-2.913-5.751-2.756-11.616,.691-22.49-1.713-32.135-8.543-1.131-.801-2.229-1.382-3.672-1.177-7.446,1.054-14.755,2.542-21.31,6.508-2.583,1.563-5.038,3.272-6.503,6.029-1.347,2.534-.73,5.378,1.412,7.208,1.301,1.111,2.82,.842,4.284,.84,13.947-.016,27.484,2.176,40.46,7.434,1.082,.439,2.152,.907,3.408,.846Zm16.048,163.015c1.967,.334,3.428,.627,4.901,.824,5.797,.773,11.632,1.899,16.627,4.856,5.154,3.051,9.939,2.612,15.117,.787,3.286-1.158,6.623-2.174,9.73-3.774,2.216-1.141,4.362-2.402,6.164-4.175,3.073-3.023,3.098-5.029-.168-7.873-2.517-2.191-5.45-3.76-8.507-5.09-11.832-5.148-24.359-6.198-37.049-6.33-1.963-.02-2.925,.728-3.373,2.768-1.276,5.81-2.634,11.596-3.442,18.008Zm-91.567-30.116c8.412-.238,16.82-1.131,24.939-3.933,3.168-1.093,6.2-2.456,8.85-4.521,1.899-1.48,1.92-2.487,.108-3.973-2.474-2.028-5.368-3.332-8.357-4.396-5.355-1.905-10.89-2.9-16.543-3.526-11.599-1.286-22.918-.248-33.991,3.429-2.859,.95-5.572,2.229-7.999,4.025-2.793,2.068-2.759,3.193,.22,5.2,2.495,1.682,5.265,2.826,8.111,3.806,7.96,2.741,16.205,3.609,24.663,3.889Zm64.436,75.622c6.088,3.398,12.713,4.591,19.584,4.76,8.433,.208,16.576-.948,24.096-5.123,2.363-1.312,4.496-2.882,6.168-4.984,2.548-3.202,2.535-6.758,.127-10.108-.985-1.37-2.223-2.456-3.606-3.41-6.497-4.482-13.771-6.341-21.573-6.812-2.791-.169-4.115,.749-5.342,3.175-3.964,7.842-9.732,14.23-16.678,19.588-1.01,.779-2.374,1.286-2.777,2.913Zm-24.164-146.042c-.803-.242-1.269-.514-1.728-.502-10.797,.275-21.541,.05-32.077-2.772-1.872-.501-2.221,.499-1.943,2.254,.672,4.247,1.202,8.518,1.692,12.79,.622,5.435,1.201,10.876,1.682,16.324,.141,1.595,.664,2.193,2.334,2.465,5.554,.903,11.073,2.032,16.59,3.153,1.444,.293,2.889,1.429,4.299,.854,1.97-.803,.812-2.938,1.298-4.429,3.223-9.872,3.854-20.393,7.853-30.138Zm-29.457,90.047c-.678-.25-.984-.463-1.285-.458-8.46,.141-16.922,.576-25.333-.918-2.556-.454-2.027,1.513-1.814,2.932,.913,6.073,1.691,12.155,1.848,18.305,.165,6.471,.424,12.941,.551,19.413,.043,2.182,.768,2.772,3.039,2.483,6.238-.796,10.824-3.981,14.132-9.127,2.074-3.227,3.459-6.79,4.253-10.556,1.535-7.282,3.044-14.57,4.609-22.073Zm92.031-141.562c-.044-.019,.383,.3,.841,.354,12.723,1.495,24.861-.293,36.15-6.607,1.292-.723,2.498-1.673,3.576-2.695,4.073-3.861,4.095-7.183,.174-11.097-1.666-1.663-3.634-2.9-5.695-4.003-6.262-3.351-13.087-4.728-20.025-5.702-2.117-.297-2.464,.676-2.253,2.636,.855,7.946-2.021,14.625-7.258,20.466-1.88,2.097-3.603,4.336-5.511,6.649Zm48.186,70.983c-4.428,0-8.397,.082-12.36-.031-2.294-.065-2.785,1.002-2.659,3.034,.643,10.335-4.39,17.887-12.452,23.438-3.432,2.363-5.23,4.717-4.401,8.84,.161,.801,.039,1.657,.068,2.486,.143,4.157,.15,4.135,4.379,5.057,3.398,.741,6.822,1.404,10.167,2.342,7.185,2.016,7.057,2.059,8.402-5.237,2.431-13.184,4.751-26.397,8.857-39.93Zm-39.272-22.857c1.648-8.729,3.247-17.172,5.378-25.495,.581-2.267-.852-2.464-2.547-2.409-5.655,.182-11.309,.139-16.899-.831-1.793-.311-2.288,.456-2.708,1.976-1.759,6.36-5.857,11.075-10.906,15.08-.39,.31-.797,.6-1.208,.883-1.17,.804-2.069,1.805-1.572,3.315,.469,1.424,1.858,1.145,2.958,1.245,6.466,.592,12.819,1.777,19.046,3.614,2.681,.791,5.34,1.653,8.456,2.623Zm-26.242-118.353c-1.061,.06-2.904,.024-4.702,.291-4.824,.716-9.415,2.107-13.014,5.635-3.127,3.066-3.116,5.451-.097,8.535,1.893,1.933,4.188,3.229,6.712,4.155,6.43,2.358,12.998,2.371,19.598,1,2.932-.609,5.668-1.817,8.131-3.586,5.268-3.784,5.326-7.6,.122-11.463-4.751-3.526-10.258-4.448-16.751-4.567Z"/><path class="b" d="M402.424,363.926c-.415,1.691-.704,2.615-1.575,3.803-2.736,3.734-7.292,5.268-11.442,3.708-4.276-1.608-6.76-5.595-6.356-10.201,.376-4.28,3.535-7.7,7.842-8.488,4.683-.857,8.613,1.133,10.755,5.305,.501,.976,.568,1.213,.967,2.969,0,1,0,1.84-.191,2.904Z"/></svg>