<?xml version="1.0" encoding="UTF-8"?>
<svg id="Layer_1" data-name="Layer 1" xmlns="http://www.w3.org/2000/svg" viewBox="0 0 1014 1066.21">
  <path d="M1014,1066.21H41.73c4.43-2.77,6.49-4.91,8.89-5.42,25.33-5.46,50.66-10.94,76.11-15.78,8.31-1.58,17.05-.79,25.46-2,8.65-1.24,10.93-6.46,6.78-14.31-8.42-15.9-15.27-32.92-25.64-47.43-9.94-13.9-23.46-25.26-35.52-37.62-2.11-2.16-4.78-3.77-7.19-5.64,.49-1.16,.99-2.32,1.48-3.48,12.22,4.67,24.58,9,36.63,14.08,12.77,5.38,25.85,10.45,37.67,17.53,11.73,7.03,22.07,16.4,35.53,26.65-4.61-38.06-14.33-72.5-26.8-106.25-12.48-33.78-28.99-65.19-56.46-89.82,.92-1.1,1.85-2.19,2.77-3.29,20.59,14.52,40.95,29.38,61.84,43.45,21.95,14.78,37.98,35.21,51.95,56.72,13.66,21.03,23.8,44.34,36.61,68.79v-108.32c.43-.39,.87-.78,1.3-1.17,9.7,24.08,19.39,48.16,30.27,75.17,4.52-8.16,8.74-15.09,12.31-22.34,21.48-43.55,39.42-88.47,53.39-135.03,11.38-37.93,21.51-76.09,19.51-116.06-1.01-20.14-5.48-39.88-20.5-55.17-21.82-22.22-48.57-26.83-77.95-21.12-21.56,4.19-43.11,8.45-64.54,13.24-16.14,3.61-32.14,7.92-48.11,12.25-34.49,9.35-69.9,13.99-104.81,7.23-32.17-6.22-53.35-28.45-62.69-60.26-10.86-37.02-12.79-74.49-6.25-112.78,5.21-30.51,6.08-61.82,12.18-92.11,10.53-52.22,27.15-102.4,54.08-149.14,37.48-65.05,93-109.47,158.06-143.52,23.01-12.04,46.49-23.56,70.72-32.78,18.15-6.9,37.86-9.69,56.87-14.37C392.86-3,430.73,.24,468.15,2.17c23.54,1.22,46.82,8.54,70.09,13.71,37.07,8.24,71.35,23.8,103.45,43.52,42.1,25.87,81.38,55.59,111.06,95.88,14.8,20.09,30.55,40.06,41.57,62.23,20.16,40.53,10.2,79.53-25.81,107.17-29.05,22.3-59.65,42.56-89.05,64.42-36.49,27.13-66.55,59.73-83.04,103.07-.98,2.58-.67,5.66-1.27,11.55,13.26-8.48,23.99-15.51,34.89-22.28,50.27-31.21,103.48-52.29,164.11-43.39,48.79,7.17,92.05,26.02,127.75,61.69,31.88,31.84,58.46,66.95,76.47,108.28,12.37,28.37,16.69,58.44,11.17,88.58-5.15,28.15-23.99,45.95-51.15,56.02-44.77,16.6-91.15,16.49-137.68,15-10.39-.33-13.4,2.62-13.66,12.71-.48,19.02-3.83,38.04-3.27,56.98,.61,20.78,4.23,41.47,6.67,62.18,1.04,8.85,2.04,17.74,3.78,26.47,.59,2.95,3.41,5.44,5.21,8.15,1.86-2.44,4.36-4.62,5.46-7.37,5.54-13.8,10.71-27.75,16.01-41.65,1.03,.16,2.07,.31,3.1,.47v113.61c1.87,.3,3.74,.59,5.61,.89,2.02-32.72,15.57-60.71,33.7-86.54,18.06-25.73,42.6-44.35,69.19-60.77-33.17,44.46-45.91,95.86-55.03,149.47,25.55-25.38,58.51-33.51,90.14-44.88-29.85,19.92-44.19,50.6-58.61,81.24-3.48,7.39-1.76,9.78,6.74,10.95,22.23,3.05,44.29,7.37,66.36,11.5,3.6,.67,6.91,2.95,11.91,5.19Zm-465.12-525.35c1.04,.7,2.07,1.4,3.11,2.1,5.86-5.98,12.33-11.49,17.38-18.09,4.54-5.94,9.9-12.78,10.75-19.74,3.18-25.86,15.59-47.38,29.87-67.92,26.14-37.6,63.2-63,100.75-87.72,23.59-15.53,46.88-31.47,65.59-53.04,12.61-14.54,17.33-34.94,8.73-55.01-14.6-34.09-43.49-50.04-76.25-59.96-19.75-5.98-40.57-8.64-61.05-11.94-35.19-5.67-70.44-5.8-105.66,.35-5,.87-10.29,.12-15.44,.12,7.02-3.62,14.12-6.53,21.47-7.43,40.74-4.95,81.12-13.82,122.58-11.46,5.25,.3,11.07-.44,15.85-2.5,10.97-4.72,11.65-10.22,2.52-17.65-16.39-13.36-36.61-18.27-56.49-21.76-23.2-4.07-46.95-5.88-70.54-6.74-54.39-1.97-108.7-1.08-162.18,11.21-2.45,.56-5.22-.28-7.84-.46,22.8-11.91,45.56-21.98,69.06-29.82,22.88-7.63,46.66-12.51,69.74-19.62,5.42-1.67,13.49-7.57,13.37-11.3-.17-5.42-5.53-12.57-10.67-15.61-22.98-13.59-48.81-19.78-74.99-21.37-33.63-2.05-67.58-3.33-100.86,4.5-22.03,5.19-45.03,8.45-65.58,17.27-44.16,18.94-86.76,41.47-124.35,71.97-17.79,14.44-34.04,30.71-43.27,52.31-1.33,3.1-.65,8.71,1.44,11.17,2.2,2.58,7.62,4.48,10.92,3.69,11.92-2.86,23.38-7.62,35.3-10.47,18.8-4.5,37.83-8.04,56.76-11.98,.35,1.24,.69,2.49,1.04,3.73-9.19,3.3-18.67,5.95-27.51,10-34.29,15.72-64.94,37.23-93.07,62.08-19.47,17.2-35.87,37.35-46.72,61.27-1.82,4.01-2.22,10.71,0,13.89,1.94,2.77,8.8,3.8,12.92,2.94,6.22-1.3,12.46-4.16,17.81-7.69,38.4-25.38,80.4-43.39,123.2-59.42,31.23-11.69,63.27-21.2,95.01-31.51,2.65-.86,5.71-.46,8.58-.64-25.79,12.07-51.64,21.65-76.86,32.67-40.83,17.84-80.36,38.31-116.17,65.07-33.74,25.21-58.6,55.39-51.96,101.59,1.54,10.71,9.31,18.62,18.87,14.55,13.56-5.77,26.57-13.71,38.33-22.66,22.7-17.28,42.95-38.12,66.79-53.49,35.16-22.66,72.05-42.84,109.23-62.11,22.4-11.61,46.25-21.04,70.35-28.61,28.51-8.96,57.79-15.83,87.1-21.8,29.09-5.92,58.5-10.92,88.02-13.83,23.12-2.27,46.63-.4,69.95-.95,36.15-.86,70.5,6.72,103.25,21.55,17.01,7.71,25.31,24.39,17.95,40.02-4.56,9.67-13.6,17.77-21.98,24.99-32.55,28.02-66.46,54.52-98.28,83.33-23.1,20.92-47.66,41.66-58.27,72.64-5.46,15.94-9.06,32.56-12.81,49.02-2.26,9.93-3.21,20.15-4.75,30.24Zm4.24,206.08c-1.23,.21-2.46,.43-3.68,.64-3.32-28.58-6.47-57.18-10.06-85.73-.85-6.73-2.51-13.52-4.94-19.85-6.43-16.71-13.31-32.88-6.22-51.53,4.05-10.64,6.17-22.13,8.15-33.42,2.14-12.21,2.91-24.65,4.65-36.94,3.93-27.81,12.14-55.22,4.15-83.82-3.7-13.24-15.02-25.04-28.58-26.62-36.91-4.3-70.04,20.6-62.48,61.37,3.92,21.13,11.04,41.65,15.34,62.73,7.55,37.04,15.36,74.12,20.62,111.52,5.24,37.24,9.1,74.83,10.65,112.39,1.79,43.51,.7,87.16,.2,130.75-.15,13.51-2.3,27.01-3.81,40.49-2.93,26.15-5.86,52.3-9.22,78.4-1.18,9.13,2.36,11.46,10.93,11.23,23.71-.64,47.47-.07,71.14-1.21,5.08-.25,11.73-4.56,14.52-8.98,9.46-14.98,17.92-30.63,25.9-46.46,3.23-6.4,6.63-14.18,5.89-20.89-4.39-40.37-9.88-80.62-15.17-120.89-4.98-37.95-10.08-75.89-15.36-113.8-.56-4-1.55-8.93-4.21-11.49-10.12-9.71-21.01-18.62-32.64-28.72,0,13.93-.55,27.22,.15,40.45,.72,13.49,2.66,26.92,4.07,40.37Zm169.72-230.69l.63,2.28c-7.82,2.75-15.49,6.16-23.5,8.12-19.02,4.66-38.2,8.64-57.32,12.89-8.27,1.84-16.77,3-24.76,5.67-8.3,2.77-15.34,14.77-10.59,22.3,6.47,10.24,9.34,14.01,25.5,26.55,12.94,10.04,28.03,17.36,42.37,25.56,24.75,14.17,52.16,21.57,79.85,24.59,28.35,3.1,57.27,1.43,85.93,1.11,28.98-.32,56.38-7.7,82.4-20.44,18.73-9.17,29.19-27.88,26.62-48.4-1.27-10.14-13.17-26.47-21.67-26.44-18.45,.06-36.53,5.44-54.75,8.13-22.62,4.06-24.75,6.23-49.04,7.01-31.69,1.78-61.94,.01-93.74-.13-2.02,.13-2.02-2.21-.67-1.17,22.62-7.97,45.42-15.65,67.94-24.06,17.77-6.63,35.28-14.44,47.1-30.07,7.08-9.36,7.39-14.63-8.18-16.86-14.79-2.45-19.47-2.45-38.15-.11-5.99,.37-16.82,3.99-25.85,6.81,11.31-10.28,20.63-17.25,27.79-25.99,2.77-3.39,2.9-12.71,.2-15.87-3.44-4.01-11.11-5.28-16.75-6.17-28.17-4.42-38.06-.37-61.12,4.5-30.9,6.53-56,20.6-75.94,44.49-2.4,2.88-4.48,8.38-4.01,10.6,1.55,7.33,7.58,8.26,12.07,8.89,10.31,1.46,20.97,1.53,31.4,.84,12.13-.8,24.17-3.02,36.25-4.62Zm-487.89,39c-.43-1.27-.86-2.54-1.29-3.81-8.39,1.52-16.9,2.59-25.15,4.66-30.57,7.66-61.03,13.63-92.51,4.34-13.53-3.99-25.5-19.38-21.68-31.37,6.42-20.17,16.23-38.65,33.84-51.19,16.14-11.5,33.66-17.46,54.29-11.1,12.78,3.94,26.44,5.89,39.84,6.81,32.17,2.2,64.42,3.26,96.64,4.79,11.3,.54,22.59,1.09,33.88,1.64,.7-1.13,1.4-2.26,2.1-3.39-2.22-1.3-4.29-3.27-6.67-3.79-17.63-3.87-35.19-8.28-53.01-10.93-29.35-4.36-59.17-6.2-85.94-21.06-14.6-8.11-17.1-25.02-4.57-34.12,10.92-7.93,21.55-16.44,33.18-23.18,17.17-9.96,35.04-17.43,55.82-9.6,12.6,4.75,25.8,7.97,38.84,11.49,25.7,6.93,50.88,14.94,73.28,30.01,6.52,4.38,13.73,7.74,20.62,11.57,.84-1.21,1.67-2.43,2.51-3.64-4.61-4.36-8.96-9.05-13.88-13.02-21.63-17.46-43.8-34.28-65.05-52.18-16.66-14.03-11.87-37.45,8.46-45.24,23.63-9.05,46.87-19.38,71-26.82,30.79-9.49,62.04-17.93,93.6-24.37,21.91-4.47,44.68-4.75,67.05-7,3.17-.32,6.27-1.23,9.41-1.87-3.73-3.14-7.42-4.25-11.02-4.03-22.8,1.37-45.68,2.17-68.33,4.83-23.69,2.78-47.42,6.29-70.64,11.64-21.98,5.06-43.81,11.67-64.84,19.84-35.67,13.85-71.4,27.93-105.72,44.74-40.17,19.67-77.4,44.48-111.98,73.19-36.79,30.54-71.61,62.7-93.81,105.95-19.31,37.63-4.08,59.89,32.37,67.66,35.33,7.53,70.86-.96,105.3-10.79,8.35-2.38,16.06-7.03,24.07-10.63Zm559.57,472.13c1.7-.41,3.39-.82,5.09-1.23,3.3-18.49,7.01-36.93,9.65-55.52,.78-5.46-1.08-11.44-2.4-17.03-4.69-19.92-11.85-39.53-14.02-59.7-3.1-28.82-2.96-58.02-3.53-87.07-.22-11.21-6.69-16.4-15.3-21.12-8.68-4.77-15.33,.74-19.53,5.63-6.07,7.08-12.39,16.15-13.37,24.95-2.29,20.71-2.53,41.81-1.56,62.66,.73,15.76,2.67,32.01,7.5,46.93,8.39,25.92,18.8,51.26,29.67,76.27,4.02,9.24,11.75,16.87,17.79,25.24Zm-192.23-318.83c-5.38,16.48,22.21,189.75,32.69,199.74,1.98-7.13,3.86-13.52,5.52-19.97,6.2-24.13,12.94-48.15,18.26-72.47,3.55-16.21,4.24-33.05,7.66-49.29,5.45-25.86,5.87-25.93-17.87-36.01-1.06-.45-1.9-1.38-2.95-1.86-14.42-6.73-28.86-13.43-43.31-20.14Zm390.72-66.16c-1.31,.1-2.62,.21-3.93,.31,0,5.97,.08,11.94-.01,17.9-.44,26.26-13.58,44.27-36.63,55.54-31.65,15.48-66.14,18.03-100.34,19.85-19.54,1.04-39.59-1.03-58.94-4.4-35.2-6.12-70.81-11.8-104.84-22.24-34.59-10.62-67.48-26.77-101.13-40.47-3.63-1.48-7.35-2.73-11.02-4.08-.62,.87-1.25,1.75-1.87,2.62,2.78,2.84,5.07,6.56,8.4,8.37,19.84,10.78,39.22,22.92,60.11,31.17,27.01,10.66,54.88,19.8,83.13,26.45,30.63,7.21,62.11,10.83,93.23,15.95,4.21,.69,8.49,.97,12.72,1.6,44.55,6.61,88.25,4.17,129.28-15.76,37.59-18.26,40.94-50.45,34.19-90.67-.14-.82-1.54-1.44-2.34-2.15Zm-530.8,28.8c-1.93,1.85-2.86,2.33-2.94,2.91-.25,1.91-.19,3.86-.25,5.8-1.26,38.37-.35,76.97-4.38,115.06-4.05,38.27-13.96,75.88-19.52,114.04-4.49,30.81-19.05,57.79-29.43,86.32-8.1,22.25-9.22,21.84,14.11,22.45,14.03,.36,17.81-3.4,20.6-16.92,4.02-19.46,9.26-38.68,13.57-58.09,4.5-20.28,9.58-40.52,12.48-61.05,3.63-25.69,4.89-51.71,7.91-77.51,5.04-43-1.94-85.15-8.16-127.37-.28-1.87-2.4-3.46-4-5.65Zm244.27,227.02c-.92-.58-1.84-1.17-2.76-1.75-1.61,2.07-3.75,3.91-4.73,6.24-2.66,6.37-5.01,12.88-7.15,19.45-9.42,28.86-18.96,57.69-27.7,86.75-.87,2.88,2.84,10,5.4,10.54,10.96,2.31,22.27,3.21,33.5,3.98,6.62,.45,9.77-2.72,8.77-10.12-2.14-15.75-4.5-31.55-5.11-47.4-.86-22.54-.22-45.13-.22-67.7Zm-377,122.82c22.57,4.72,25.04,3.11,32.41-13.97,6.65-15.42,14.74-30.23,21.35-45.67,9.83-22.97,20.1-45.87,27.94-69.55,6.5-19.61,9.88-40.26,14.31-60.53,.6-2.74-.73-5.9-1.17-8.86-1.36-.21-2.72-.42-4.08-.63-18.11,71.4-49.42,136.78-90.76,199.2Zm-148.89-173.38c21.55,22.04,22.71,53.13,36.49,78.42,6.18,11.34,15.99,20.39,29.24,24.43,6.14-17.93-38.87-90.2-65.73-102.85Zm774.85,132.77c-.57-.98-1.14-1.97-1.72-2.95-11.24-.88-36.21,16.99-38.83,31.24,13.51-9.43,27.03-18.86,40.54-28.29Z"/>
</svg>