<?xml version="1.0" encoding="UTF-8"?><svg id="a" xmlns="http://www.w3.org/2000/svg" width="432.228" height="360.94" viewBox="0 0 432.228 360.94"><path d="M430.286,32.119c2.83-1.83,2.489-8.466-.512-11.98s-7.613-3.367-10.321-2.049c-2.708,1.318-74.733,40.111-74.733,40.111l-55.629,210.756-219.588,.39s-5.758,.781-5.758,8.882,4.977,8.882,4.977,8.882h234.911l56.019-215.074s69.073-39.014,70.634-39.916v-.002Z"/><path id="b" d="M221.75,328.246c0,18.056,14.638,32.694,32.694,32.694s32.694-14.638,32.694-32.694-14.638-32.694-32.694-32.694-32.694,14.638-32.694,32.694h0Zm19.323,0c0-7.385,5.986-13.371,13.371-13.371s13.371,5.986,13.371,13.371-5.986,13.371-13.371,13.371-13.371-5.986-13.371-13.371Z"/><path id="c" d="M86.142,328.246c0,18.056,14.638,32.694,32.694,32.694s32.694-14.638,32.694-32.694-14.638-32.694-32.694-32.694-32.694,14.638-32.694,32.694Zm19.323,0c0-7.385,5.986-13.371,13.371-13.371s13.371,5.986,13.371,13.371-5.986,13.371-13.371,13.371-13.371-5.986-13.371-13.371Z"/><path d="M306.267,106.267s5.563-2.538,5.563-9.076-5.563-9.466-5.563-9.466l-288.343,.292s-6.539,.927-6.539,8.003c0,.732,44.894,143.708,44.894,143.708,0,0,.732,2.83,6.393,2.83h207.633s6.929-1.903,6.929-8.686-6.734-9.466-6.734-9.466l-198.361-1.171L33.197,106.364l273.07-.098Z"/></svg>