<?xml version="1.0" encoding="UTF-8"?>
<svg id="a" xmlns="http://www.w3.org/2000/svg"  viewBox="0 0 469.979 384.756"><defs>
<style>
.e{stroke-width:.5px;}.e,.f{stroke:#000;stroke-miterlimit:10;}.f{stroke-width:2px;}
</style>
</defs><g id="b"><path d="M86.641,320.814l-36.227-.493v-54.62c0-2.615-.949-5.863-7.044-5.863s-5.84,5.051-5.84,5.051c0,0-1.098,57.498-1.098,64.163s6.39,5.905,6.39,5.905l43.979,.165-.161-14.308Z"/><path d="M459.116,372.2s-.569-37.264-.569-45.362-6.263-7.782-6.263-7.782l-25.433,.19v-81.551c0-6.327-5.989-5.905-5.989-5.905l-11.936,.253s.337-91.441,.337-92.791,.337-7.086-4.724-7.086-5.23,6.411-5.23,6.411l-.169,93.466-307.223,.337h-25.813l.38-93.888s.633-6.327-5.061-6.327-4.682,6.073-4.682,6.073l-.591,93.635s-10.038-.063-13.645,0c-3.606,.063-6.073,1.076-6.073,5.504,0,7.086,5.947,6.769,5.947,6.769H414.914v74.95s-219.339,1.532-228.995,.18l-.18,13.739H446.716s-.084,36.863-.084,39.141-.295,7.761,6.411,7.761,6.074-7.719,6.074-7.719Z"/><path class="f" d="M121.146,177.719h-23.282c-2.865,0-5.188,2.48-5.188,5.538v47.55c0,3.059,2.323,5.539,5.188,5.539h2.91v-49.081c0-1.094,.831-1.981,1.856-1.981h14.003c1.025,0,1.856,.887,1.856,1.981v49.081h2.657c2.865,0,5.188-2.48,5.188-5.539v-47.55c0-3.059-2.323-5.538-5.188-5.538Z"/><path d="M136.023,275.149c-28.442,0-51.499,23.057-51.499,51.499s23.057,51.499,51.499,51.499,51.499-23.057,51.499-51.499-23.057-51.499-51.499-51.499Zm0,91.657c-22.179,0-40.158-17.979-40.158-40.158s17.979-40.158,40.158-40.158,40.158,17.979,40.158,40.158-17.979,40.158-40.158,40.158Z"/><path class="f" d="M137.651,305.113c-11.469-.841-21.183,7.287-22.922,18.084-.542,2.86,4.671,3.83,5.869,.625,.084-.224,.363-1.832,.599-1.82,2.257-7.21,9.625-12.159,17.861-10.601,6.091,1.152,11.013,6.044,12.196,12.129,1.933,9.946-5.632,18.652-15.231,18.652-.894,0-1.764-.092-2.617-.237-5.807-2.855-7.747,3.683-4.049,5.237,2.101,.682,4.338,1.06,6.666,1.06,12.211,0,22.055-10.135,21.578-22.452-.419-10.817-9.155-19.887-19.951-20.678Z"/></g><path id="c" d="M430.646,80.668v-7.339l-39.415-53.713-317.029,.274-41.672,52.553v11.472c0,18.39,20.077,33.742,42.853,33.742s40.491-13.666,40.322-22.439c0,11.641,24.126,23.619,39.647,23.619,21.258,0,38.297-15.69,37.96-23.113,0,8.436,19.233,24.8,38.276,24.8s40.849-20.077,41.524-24.126c0,4.218,12.485,24.126,38.972,24.126s39.985-26.15,39.985-26.15c0,0,3.543,22.945,41.334,22.945s37.243-36.652,37.243-36.652ZM75.974,108.547c-26.572,0-30.115-22.607-30.115-26.15h60.23s-3.543,26.15-30.115,26.15Zm35.935-37.116H50.414l26.319-39.605h50.993l-15.817,39.605Zm42.346,37.116c-26.572,0-30.115-22.607-30.115-26.15h60.23s-3.543,26.15-30.115,26.15Zm34.839-37.116h-62.76l14.931-39.605h53.65l-5.82,39.605Zm42.494,37.116c-26.572,0-30.115-22.607-30.115-26.15h60.23s-3.543,26.15-30.115,26.15Zm-31.359-35.935l6.917-40.786h53.65l5.399,40.786h-65.966Zm109.831,35.935c-26.572,0-30.115-22.607-30.115-26.15h60.23s-3.543,26.15-30.115,26.15Zm-31.886-37.116l-7.592-39.605h54.156l15.437,39.605h-62.001Zm75.667,0l-15.69-39.605h51.119l25.307,39.605h-60.736Zm34.839,37.116c-26.572,0-30.115-22.607-30.115-26.15h60.23s-3.543,26.15-30.115,26.15Z"/><g id="d"><path class="f" d="M211.42,196.956c-11.927,0-21.595,9.668-21.595,21.595s9.668,21.595,21.595,21.595,21.595-9.668,21.595-21.595-9.668-21.595-21.595-21.595Zm0,37.13c-8.579,0-15.535-6.955-15.535-15.534s6.955-15.535,15.535-15.535,15.535,6.955,15.535,15.535-6.955,15.534-15.535,15.534Z"/><path class="f" d="M174.29,196.956c-11.927,0-21.595,9.668-21.595,21.595s9.668,21.595,21.595,21.595,21.595-9.668,21.595-21.595-9.668-21.595-21.595-21.595Zm0,37.13c-8.579,0-15.535-6.955-15.535-15.534s6.955-15.535,15.535-15.535,15.535,6.955,15.535,15.535-6.955,15.534-15.535,15.534Z"/><path class="f" d="M193.517,162.159c-12.532,0-22.692,10.159-22.692,22.692s10.159,22.692,22.692,22.692,22.692-10.159,22.692-22.692-10.159-22.692-22.692-22.692Zm0,39.015c-9.015,0-16.323-7.308-16.323-16.323s7.308-16.323,16.323-16.323,16.323,7.308,16.323,16.323-7.308,16.323-16.323,16.323Z"/></g><path class="e" d="M348.775,203.017h-77.429c-2.937,0-5.319,2.381-5.319,5.319v22.776c0,2.937,2.381,5.319,5.319,5.319h77.429c2.937,0,5.319-2.381,5.319-5.319v-22.776c0-2.937-2.381-5.319-5.319-5.319Zm-2.273,21.262c0,2.937-2.381,5.319-5.319,5.319h-62.246c-2.937,0-5.319-2.381-5.319-5.319v-9.11c0-2.938,2.381-5.319,5.319-5.319h62.246c2.937,0,5.319,2.381,5.319,5.319v9.11Z"/><path class="f" d="M335.203,174.129h-50.285c-1.908,0-3.454,2.381-3.454,5.319v22.776c0,2.937,1.546,5.319,3.454,5.319h50.285c1.908,0,3.454-2.381,3.454-5.319v-22.776c0-2.937-1.547-5.319-3.454-5.319Zm-1.476,21.262c0,2.937-1.546,5.319-3.454,5.319h-40.424c-1.908,0-3.454-2.381-3.454-5.319v-9.11c0-2.938,1.546-5.319,3.454-5.319h40.424c1.908,0,3.454,2.381,3.454,5.319v9.11Z"/></svg>